Coordinates
version=1
nRows=14
nColumns=24
inDegrees=yes

Units are S.I. units (second, meters, Newtons, ...)
Angles are in degrees.

endheader
time	pelvis_tilt	pelvis_list	pelvis_rotation	pelvis_tx	pelvis_ty	pelvis_tz	hip_flexion_r	hip_adduction_r	hip_rotation_r	knee_angle_r	ankle_angle_r	subtalar_angle_r	mtp_angle_r	hip_flexion_l	hip_adduction_l	hip_rotation_l	knee_angle_l	ankle_angle_l	subtalar_angle_l	mtp_angle_l	lumbar_extension	lumbar_bending	lumbar_rotation
      0.70500000	      0.15915753	      1.84307363	      5.14469954	     -0.40677004	      1.07937875	      0.26803615	      8.47625585	      1.03429577	     -4.83249978	    -20.39786344	     11.38780168	     -5.18826677	      5.12708174	     17.76096574	     -2.01644349	     -4.06784636	    -68.90746610	      7.08956083	      4.67575235	      4.68500609	    -15.79207140	      2.15664109	     -1.87306605
      0.70916667	      0.22332228	      1.99050631	      5.04993084	     -0.40161212	      1.08048515	      0.26840541	      7.89441513	      0.93916758	     -4.76653809	    -19.96860700	     11.40772372	     -5.11556257	      5.08831907	     18.12317369	     -1.85702591	     -4.24851443	    -68.27570381	      7.36756861	      4.94680842	      4.66994814	    -15.92547132	      1.92736235	     -1.60306631
      0.71333333	      0.24922021	      2.15475083	      4.94258756	     -0.39645539	      1.08149278	      0.26876827	      7.36916730	      0.81720568	     -4.69917009	    -19.57251463	     11.41309014	     -5.04265763	      5.06900475	     18.50537943	     -1.67246430	     -4.43877724	    -67.58062361	      7.63316221	      5.22661151	      4.66731027	    -16.00396023	      1.68572780	     -1.48518929
      0.71750000	      0.28682843	      2.31418816	      4.82602224	     -0.39130108	      1.08247635	      0.26915053	      6.82995538	      0.70058242	     -4.63406273	    -19.16734944	     11.40930127	     -4.95935277	      5.05315792	     18.86017839	     -1.50260233	     -4.64859466	    -66.83703187	      7.89644253	      5.48117274	      4.66633206	    -16.09613780	      1.43173993	     -1.34334809
      0.72166667	      0.34172924	      2.45492828	      4.70137677	     -0.38615576	      1.08344273	      0.26951888	      6.26963653	      0.60534121	     -4.55410544	    -18.74870550	     11.43099799	     -4.88700982	      5.03280008	     19.18221647	     -1.35618934	     -4.86278791	    -66.04576367	      8.14204956	      5.73132685	      4.66267584	    -16.21221660	      1.21022741	     -1.11504980
      0.72583333	      0.36759895	      2.59666398	      4.57319792	     -0.38099720	      1.08430269	      0.26988637	      5.74760970	      0.50282055	     -4.48071563	    -18.34553721	     11.42897921	     -4.80658092	      5.01550150	     19.52048544	     -1.20648264	     -5.08249078	    -65.20867742	      8.37891387	      5.94527130	      4.66001105	    -16.28617186	      0.98591417	     -0.93913896
      0.73000000	      0.41463212	      2.72621802	      4.44119424	     -0.37584826	      1.08515848	      0.27025571	      5.19743311	      0.41532421	     -4.40022694	    -17.92292582	     11.43980496	     -4.73041740	      4.99546047	     19.82187011	     -1.07521027	     -5.30631711	    -64.32539507	      8.60206004	      6.14042185	      4.65479027	    -16.38996880	      0.75484924	     -0.71903748
      0.73416667	      0.45065805	      2.86466589	      4.29901301	     -0.37069344	      1.08595661	      0.27061731	      4.66749373	      0.31212037	     -4.32240361	    -17.51908093	     11.44496338	     -4.64564172	      4.97754512	     20.11284168	     -0.93081558	     -5.53751370	    -63.38374385	      8.80676309	      6.30870432	      4.64886923	    -16.47494207	      0.52738678	     -0.52828408
      0.73833333	      0.46541375	      2.98943084	      4.15781912	     -0.36554823	      1.08664624	      0.27095745	      4.16659579	      0.21859177	     -4.24845936	    -17.12222688	     11.45253836	     -4.55805036	      4.96047246	     20.41648404	     -0.79846123	     -5.76455881	    -62.40494742	      9.00339805	      6.46178492	      4.64222011	    -16.53482272	      0.31598803	     -0.33579580
      0.74250000	      0.47398121	      3.11803448	      4.00887928	     -0.36040166	      1.08729286	      0.27129407	      3.67961347	      0.11616865	     -4.17698901	    -16.73882572	     11.44138859	     -4.46554726	      4.94881005	     20.70486080	     -0.65930853	     -5.99302301	    -61.36786944	      9.18151162	      6.58850260	      4.63748494	    -16.57949708	      0.11392159	     -0.19510231
      0.74666667	      0.50604295	      3.22375145	      3.86875231	     -0.35526079	      1.08790384	      0.27162179	      3.15840234	      0.04139672	     -4.10215800	    -16.33387261	     11.47356564	     -4.37649838	      4.93423479	     20.95984870	     -0.54640104	     -6.20709175	    -60.30111127	      9.34192974	      6.69415053	      4.62868634	    -16.65888488	     -0.08591746	      0.02971392
      0.75083333	      0.50151595	      3.33823958	      3.72145320	     -0.35011612	      1.08842380	      0.27193524	      2.69130087	     -0.05223130	     -4.03805602	    -15.95737336	     11.45456706	     -4.28264748	      4.92534944	     21.23095836	     -0.41725881	     -6.42329842	    -59.17543113	      9.48655341	      6.77933794	      4.62368065	    -16.68536229	     -0.27372926	      0.14653863
      0.75500000	      0.54407199	      3.43224424	      3.58122842	     -0.34499702	      1.08894888	      0.27223097	      2.16347402	     -0.11930900	     -3.96557318	    -15.55605941	     11.49755376	     -4.19544706	      4.91178872	     21.44088947	     -0.30988842	     -6.62102104	    -58.01432866	      9.60429329	      6.83410864	      4.61330580	    -16.77642504	     -0.45407478	      0.38592123
      0.75916667	      0.54003497	      3.52458484	      3.44068583	     -0.33987303	      1.08933665	      0.27251524	      1.69895559	     -0.19203795	     -3.90144428	    -15.18194164	     11.51788808	     -4.10347021	      4.89943296	     21.68420106	     -0.19737637	     -6.81186100	    -56.80967391	      9.70442254	      6.87319369	      4.60389177	    -16.80630641	     -0.62360144	      0.55628367
